<svg width="1200" height="800" viewBox="0 0 1200 800" fill="none" xmlns="http://www.w3.org/2000/svg">
  <rect width="1200" height="800" fill="#171412"/>
  <rect x="85" y="80" width="1030" height="620" rx="38" fill="#2B2520"/>
  <rect x="130" y="125" width="940" height="530" rx="28" fill="#D8C4A8"/>
  <path d="M130 308H1070" stroke="#C1A684" stroke-width="3" stroke-dasharray="18 18"/>
  <path d="M356 125V655" stroke="#C1A684" stroke-width="3" stroke-dasharray="18 18"/>
  <rect x="426" y="168" width="348" height="44" rx="14" fill="#342E2A"/>
  <rect x="458" y="183" width="284" height="12" rx="6" fill="#0C0C0C"/>
  <rect x="244" y="430" width="360" height="150" rx="34" fill="#735B49"/>
  <rect x="274" y="456" width="300" height="92" rx="46" fill="#8B705B"/>
  <rect x="283" y="566" width="18" height="52" rx="9" fill="#4A362C"/>
  <rect x="548" y="566" width="18" height="52" rx="9" fill="#4A362C"/>
  <rect x="188" y="224" width="244" height="116" rx="28" fill="#6C7566"/>
  <rect x="208" y="242" width="204" height="76" rx="20" fill="#87907F"/>
  <rect x="700" y="438" width="210" height="118" rx="28" fill="#423931"/>
  <rect x="725" y="462" width="160" height="70" rx="18" fill="#5A4C40"/>
  <circle cx="424" cy="505" r="72" fill="#A88968" fill-opacity="0.72"/>
  <circle cx="424" cy="505" r="49" fill="#C9A984" fill-opacity="0.72"/>
  <path d="M424 430V580" stroke="#F7E8CF" stroke-width="3" stroke-dasharray="10 12"/>
  <path d="M349 505H499" stroke="#F7E8CF" stroke-width="3" stroke-dasharray="10 12"/>
  <text x="424" y="496" text-anchor="middle" fill="#281D16" font-family="Arial, sans-serif" font-size="26" font-weight="700">34 in</text>
  <text x="424" y="529" text-anchor="middle" fill="#281D16" font-family="Arial, sans-serif" font-size="20">coffee table</text>
  <text x="600" y="760" text-anchor="middle" fill="#F2E9DE" font-family="Arial, sans-serif" font-size="28" font-weight="700">Test room image: living room with round 34 inch coffee table</text>
</svg>
